<mxfile host="app.diagrams.net" agent="Mozilla/5.0 (Windows NT 10.0; Win64; x64) AppleWebKit/537.36 (KHTML, like Gecko) Chrome/136.0.0.0 Safari/537.36 Edg/136.0.0.0" version="27.0.8">
  <diagram name="Page-1" id="UxmugCpW2d8nodCxSmlv">
    <mxGraphModel dx="1657" dy="786" grid="1" gridSize="10" guides="1" tooltips="1" connect="1" arrows="1" fold="1" page="1" pageScale="1" pageWidth="850" pageHeight="1100" math="0" shadow="0">
      <root>
        <mxCell id="0" />
        <mxCell id="1" parent="0" />
        <mxCell id="QFnk0KXvPycEiEolL-xh-1" value="" style="rounded=1;whiteSpace=wrap;html=1;" vertex="1" parent="1">
          <mxGeometry x="70" y="70" width="240" height="120" as="geometry" />
        </mxCell>
        <mxCell id="QFnk0KXvPycEiEolL-xh-2" value="" style="endArrow=none;html=1;rounded=0;exitX=1;exitY=0.308;exitDx=0;exitDy=0;exitPerimeter=0;entryX=0.013;entryY=0.308;entryDx=0;entryDy=0;entryPerimeter=0;" edge="1" parent="1" source="QFnk0KXvPycEiEolL-xh-1" target="QFnk0KXvPycEiEolL-xh-1">
          <mxGeometry width="50" height="50" relative="1" as="geometry">
            <mxPoint x="400" y="430" as="sourcePoint" />
            <mxPoint x="50" y="108" as="targetPoint" />
          </mxGeometry>
        </mxCell>
        <mxCell id="QFnk0KXvPycEiEolL-xh-3" value="Kiểm tra đơn hàng" style="text;html=1;align=center;verticalAlign=middle;whiteSpace=wrap;rounded=0;" vertex="1" parent="1">
          <mxGeometry x="100" y="70" width="180" height="30" as="geometry" />
        </mxCell>
        <mxCell id="QFnk0KXvPycEiEolL-xh-4" value="ID đơn hàng" style="text;html=1;align=center;verticalAlign=middle;whiteSpace=wrap;rounded=0;" vertex="1" parent="1">
          <mxGeometry x="90" y="115" width="100" height="30" as="geometry" />
        </mxCell>
        <mxCell id="QFnk0KXvPycEiEolL-xh-5" value="Trạng thái đơn hàng" style="text;html=1;align=center;verticalAlign=middle;whiteSpace=wrap;rounded=0;" vertex="1" parent="1">
          <mxGeometry x="90" y="145" width="140" height="30" as="geometry" />
        </mxCell>
        <mxCell id="QFnk0KXvPycEiEolL-xh-6" value="" style="rounded=1;whiteSpace=wrap;html=1;" vertex="1" parent="1">
          <mxGeometry x="520" y="70" width="240" height="120" as="geometry" />
        </mxCell>
        <mxCell id="QFnk0KXvPycEiEolL-xh-7" value="" style="endArrow=none;html=1;rounded=0;exitX=1;exitY=0.308;exitDx=0;exitDy=0;exitPerimeter=0;entryX=0.013;entryY=0.308;entryDx=0;entryDy=0;entryPerimeter=0;" edge="1" source="QFnk0KXvPycEiEolL-xh-6" target="QFnk0KXvPycEiEolL-xh-6" parent="1">
          <mxGeometry width="50" height="50" relative="1" as="geometry">
            <mxPoint x="850" y="430" as="sourcePoint" />
            <mxPoint x="500" y="108" as="targetPoint" />
          </mxGeometry>
        </mxCell>
        <mxCell id="QFnk0KXvPycEiEolL-xh-8" value="Khách hàng" style="text;html=1;align=center;verticalAlign=middle;whiteSpace=wrap;rounded=0;" vertex="1" parent="1">
          <mxGeometry x="550" y="70" width="180" height="30" as="geometry" />
        </mxCell>
        <mxCell id="QFnk0KXvPycEiEolL-xh-9" value="ID khách hàng" style="text;html=1;align=center;verticalAlign=middle;whiteSpace=wrap;rounded=0;" vertex="1" parent="1">
          <mxGeometry x="540" y="115" width="100" height="30" as="geometry" />
        </mxCell>
        <mxCell id="QFnk0KXvPycEiEolL-xh-10" value="Tên khách hàng" style="text;html=1;align=center;verticalAlign=middle;whiteSpace=wrap;rounded=0;" vertex="1" parent="1">
          <mxGeometry x="520" y="145" width="140" height="30" as="geometry" />
        </mxCell>
        <mxCell id="QFnk0KXvPycEiEolL-xh-11" value="" style="endArrow=none;html=1;rounded=0;entryX=0;entryY=0.5;entryDx=0;entryDy=0;exitX=1;exitY=0.5;exitDx=0;exitDy=0;" edge="1" parent="1" source="QFnk0KXvPycEiEolL-xh-1" target="QFnk0KXvPycEiEolL-xh-6">
          <mxGeometry width="50" height="50" relative="1" as="geometry">
            <mxPoint x="400" y="430" as="sourcePoint" />
            <mxPoint x="450" y="380" as="targetPoint" />
          </mxGeometry>
        </mxCell>
        <mxCell id="QFnk0KXvPycEiEolL-xh-12" value="1" style="text;html=1;align=center;verticalAlign=middle;whiteSpace=wrap;rounded=0;" vertex="1" parent="1">
          <mxGeometry x="310" y="100" width="30" height="30" as="geometry" />
        </mxCell>
        <mxCell id="QFnk0KXvPycEiEolL-xh-13" value="1" style="text;html=1;align=center;verticalAlign=middle;whiteSpace=wrap;rounded=0;" vertex="1" parent="1">
          <mxGeometry x="490" y="100" width="30" height="30" as="geometry" />
        </mxCell>
        <mxCell id="QFnk0KXvPycEiEolL-xh-14" value="Thực hiện bởi" style="text;html=1;align=center;verticalAlign=middle;whiteSpace=wrap;rounded=0;" vertex="1" parent="1">
          <mxGeometry x="350" y="100" width="130" height="30" as="geometry" />
        </mxCell>
        <mxCell id="QFnk0KXvPycEiEolL-xh-15" value="" style="rounded=1;whiteSpace=wrap;html=1;" vertex="1" parent="1">
          <mxGeometry x="70" y="310" width="240" height="120" as="geometry" />
        </mxCell>
        <mxCell id="QFnk0KXvPycEiEolL-xh-16" value="" style="endArrow=none;html=1;rounded=0;exitX=1;exitY=0.308;exitDx=0;exitDy=0;exitPerimeter=0;entryX=0.013;entryY=0.308;entryDx=0;entryDy=0;entryPerimeter=0;" edge="1" source="QFnk0KXvPycEiEolL-xh-15" target="QFnk0KXvPycEiEolL-xh-15" parent="1">
          <mxGeometry width="50" height="50" relative="1" as="geometry">
            <mxPoint x="400" y="670" as="sourcePoint" />
            <mxPoint x="50" y="348" as="targetPoint" />
          </mxGeometry>
        </mxCell>
        <mxCell id="QFnk0KXvPycEiEolL-xh-17" value="Sản phẩm" style="text;html=1;align=center;verticalAlign=middle;whiteSpace=wrap;rounded=0;" vertex="1" parent="1">
          <mxGeometry x="100" y="310" width="180" height="30" as="geometry" />
        </mxCell>
        <mxCell id="QFnk0KXvPycEiEolL-xh-18" value="ID sản phẩm" style="text;html=1;align=center;verticalAlign=middle;whiteSpace=wrap;rounded=0;" vertex="1" parent="1">
          <mxGeometry x="90" y="355" width="100" height="30" as="geometry" />
        </mxCell>
        <mxCell id="QFnk0KXvPycEiEolL-xh-19" value="Tên" style="text;html=1;align=center;verticalAlign=middle;whiteSpace=wrap;rounded=0;" vertex="1" parent="1">
          <mxGeometry x="50" y="385" width="140" height="30" as="geometry" />
        </mxCell>
        <mxCell id="QFnk0KXvPycEiEolL-xh-20" value="" style="endArrow=none;html=1;rounded=0;entryX=0.5;entryY=1;entryDx=0;entryDy=0;exitX=0.5;exitY=0;exitDx=0;exitDy=0;" edge="1" parent="1" source="QFnk0KXvPycEiEolL-xh-17" target="QFnk0KXvPycEiEolL-xh-1">
          <mxGeometry width="50" height="50" relative="1" as="geometry">
            <mxPoint x="400" y="430" as="sourcePoint" />
            <mxPoint x="450" y="380" as="targetPoint" />
          </mxGeometry>
        </mxCell>
        <mxCell id="QFnk0KXvPycEiEolL-xh-21" value="1" style="text;html=1;align=center;verticalAlign=middle;whiteSpace=wrap;rounded=0;" vertex="1" parent="1">
          <mxGeometry x="190" y="190" width="30" height="30" as="geometry" />
        </mxCell>
        <mxCell id="QFnk0KXvPycEiEolL-xh-24" value="*" style="text;html=1;align=center;verticalAlign=middle;whiteSpace=wrap;rounded=0;" vertex="1" parent="1">
          <mxGeometry x="190" y="280" width="30" height="30" as="geometry" />
        </mxCell>
        <mxCell id="QFnk0KXvPycEiEolL-xh-25" value="Chứa" style="text;html=1;align=center;verticalAlign=middle;whiteSpace=wrap;rounded=0;" vertex="1" parent="1">
          <mxGeometry x="180" y="230" width="60" height="30" as="geometry" />
        </mxCell>
        <mxCell id="QFnk0KXvPycEiEolL-xh-26" value="" style="rounded=1;whiteSpace=wrap;html=1;" vertex="1" parent="1">
          <mxGeometry x="520" y="310" width="240" height="120" as="geometry" />
        </mxCell>
        <mxCell id="QFnk0KXvPycEiEolL-xh-27" value="" style="endArrow=none;html=1;rounded=0;exitX=1;exitY=0.308;exitDx=0;exitDy=0;exitPerimeter=0;entryX=0.013;entryY=0.308;entryDx=0;entryDy=0;entryPerimeter=0;" edge="1" source="QFnk0KXvPycEiEolL-xh-26" target="QFnk0KXvPycEiEolL-xh-26" parent="1">
          <mxGeometry width="50" height="50" relative="1" as="geometry">
            <mxPoint x="850" y="670" as="sourcePoint" />
            <mxPoint x="500" y="348" as="targetPoint" />
          </mxGeometry>
        </mxCell>
        <mxCell id="QFnk0KXvPycEiEolL-xh-28" value="Danh mục" style="text;html=1;align=center;verticalAlign=middle;whiteSpace=wrap;rounded=0;" vertex="1" parent="1">
          <mxGeometry x="550" y="310" width="180" height="30" as="geometry" />
        </mxCell>
        <mxCell id="QFnk0KXvPycEiEolL-xh-29" value="Tên danh mục" style="text;html=1;align=center;verticalAlign=middle;whiteSpace=wrap;rounded=0;" vertex="1" parent="1">
          <mxGeometry x="540" y="355" width="100" height="30" as="geometry" />
        </mxCell>
        <mxCell id="QFnk0KXvPycEiEolL-xh-30" value="ID danh mục" style="text;html=1;align=center;verticalAlign=middle;whiteSpace=wrap;rounded=0;" vertex="1" parent="1">
          <mxGeometry x="520" y="385" width="140" height="30" as="geometry" />
        </mxCell>
        <mxCell id="QFnk0KXvPycEiEolL-xh-31" value="" style="endArrow=none;html=1;rounded=0;entryX=1;entryY=0.5;entryDx=0;entryDy=0;exitX=0;exitY=0.5;exitDx=0;exitDy=0;" edge="1" parent="1" source="QFnk0KXvPycEiEolL-xh-26" target="QFnk0KXvPycEiEolL-xh-15">
          <mxGeometry width="50" height="50" relative="1" as="geometry">
            <mxPoint x="400" y="430" as="sourcePoint" />
            <mxPoint x="450" y="380" as="targetPoint" />
          </mxGeometry>
        </mxCell>
        <mxCell id="QFnk0KXvPycEiEolL-xh-32" value="*" style="text;html=1;align=center;verticalAlign=middle;whiteSpace=wrap;rounded=0;" vertex="1" parent="1">
          <mxGeometry x="310" y="340" width="30" height="30" as="geometry" />
        </mxCell>
        <mxCell id="QFnk0KXvPycEiEolL-xh-33" value="1" style="text;html=1;align=center;verticalAlign=middle;whiteSpace=wrap;rounded=0;" vertex="1" parent="1">
          <mxGeometry x="490" y="340" width="30" height="30" as="geometry" />
        </mxCell>
        <mxCell id="QFnk0KXvPycEiEolL-xh-36" value="Thuộc" style="text;html=1;align=center;verticalAlign=middle;whiteSpace=wrap;rounded=0;" vertex="1" parent="1">
          <mxGeometry x="395" y="340" width="60" height="30" as="geometry" />
        </mxCell>
      </root>
    </mxGraphModel>
  </diagram>
</mxfile>
